<?xml version="1.0" encoding="UTF-8"?>
<svg version="1.1" xmlns="http://www.w3.org/2000/svg" width="100" height="100">
<path d="M0 0 C4.02423407 0.5628617 6.06038034 2.90590182 8.80419922 5.6862793 C9.35439728 6.22932205 9.90459534 6.77236481 10.47146606 7.3318634 C11.62897646 8.48160078 12.78013736 9.63776125 13.92529297 10.79980469 C15.68293528 12.57668948 17.46795145 14.32227888 19.25732422 16.06713867 C20.37888982 17.18841396 21.49874262 18.31140565 22.61669922 19.4362793 C23.42117996 20.21783638 23.42117996 20.21783638 24.24191284 21.0151825 C26.43276193 23.2769649 27.77109212 24.69808257 27.95996094 27.90698242 C26.42344715 31.23489743 24.21105366 33.58596905 21.64013672 36.1315918 C21.12070496 36.65722214 20.60127319 37.18285248 20.06610107 37.72441101 C18.96818518 38.82941229 17.86513037 39.92932836 16.75732422 41.02441406 C15.06567707 42.70217528 13.39942471 44.40256424 11.73388672 46.10620117 C10.6624218 47.17861714 9.58955066 48.24963036 8.51513672 49.3190918 C8.0191095 49.82837723 7.52308228 50.33766266 7.01202393 50.86238098 C4.68779949 53.12552299 3.27986117 54.3297396 0.01806641 54.77294922 C-2.18798828 54.39331055 -2.18798828 54.39331055 -3.18798828 53.39331055 C-3.2611845 50.69676201 -3.28041365 48.02639597 -3.25048828 45.33081055 C-3.24597656 44.57219727 -3.24146484 43.81358398 -3.23681641 43.03198242 C-3.22499508 41.15239183 -3.20705906 39.27284156 -3.18798828 37.39331055 C-3.85784256 37.40219299 -4.52769684 37.41107544 -5.21784973 37.42022705 C-12.17664067 37.5085786 -19.13527285 37.56899427 -26.09448242 37.61303711 C-28.69318104 37.63317828 -31.29183421 37.66049283 -33.89038086 37.69506836 C-37.6212077 37.74347443 -41.35143648 37.76625455 -45.08251953 37.78393555 C-46.24821976 37.80458069 -47.41391998 37.82522583 -48.61494446 37.84649658 C-49.69583847 37.84679871 -50.77673248 37.84710083 -51.89038086 37.84741211 C-52.84302322 37.85629456 -53.79566559 37.865177 -54.7771759 37.87432861 C-57.18798828 37.39331055 -57.18798828 37.39331055 -58.9941864 35.5446167 C-60.56631595 32.71154027 -60.58718321 30.61930101 -60.56298828 27.39331055 C-60.57072266 26.36206055 -60.57845703 25.33081055 -60.58642578 24.26831055 C-60.12872163 20.96566099 -59.50087679 19.76061606 -57.18798828 17.39331055 C-54.7771759 16.91229248 -54.7771759 16.91229248 -51.89038086 16.93920898 C-50.80948685 16.93951111 -49.72859283 16.93981323 -48.61494446 16.94012451 C-46.86639412 16.97109222 -46.86639412 16.97109222 -45.08251953 17.00268555 C-43.88817795 17.00834534 -42.69383636 17.01400513 -41.46330261 17.01983643 C-37.64195981 17.04225879 -33.82154854 17.0924686 -30.00048828 17.14331055 C-27.41261118 17.16336785 -24.82471941 17.18161995 -22.23681641 17.19799805 C-15.88688824 17.24214292 -9.5375048 17.30911427 -3.18798828 17.39331055 C-3.19958984 16.24991211 -3.21119141 15.10651367 -3.22314453 13.9284668 C-3.23252116 12.43758301 -3.24162149 10.94669746 -3.25048828 9.45581055 C-3.25886719 8.70106445 -3.26724609 7.94631836 -3.27587891 7.16870117 C-3.28451269 5.24336741 -3.24023161 3.31795474 -3.18798828 1.39331055 C-2.18798828 0.39331055 -2.18798828 0.39331055 0 0 Z " fill="#FFFFFF" transform="translate(66.18798828125,22.606689453125)"/>
</svg>
